<?xml version="1.0" encoding="UTF-8"?>
<svg id="Layer_1" data-name="Layer 1" xmlns="http://www.w3.org/2000/svg" viewBox="0 0 16 16">
  <defs>
    <style>
      .cls-1 {
        fill: #201600;
      }

      .cls-1, .cls-2 {
        stroke-width: 0px;
      }

      .cls-2 {
        fill: #fff;
      }
    </style>
  </defs>
  <circle class="cls-2" cx="8" cy="8" r="8"/>
  <g>
    <path class="cls-1" d="M10.71,5.72c-.13-.07-.31-.02-.36,0-.02,0-.03.01-.05.02-.16.07-.3.19-.35.32-.22.55-.5,1.12-.85,1.7-.21.36-.48.76-.82,1.12.31-.51.6-1.02.87-1.54.35-.67.7-1.39.82-2.12.1-.65.03-1.17-.23-1.6-.16-.26-.44-.58-.93-.67-.22-.04-.44-.01-.66.08-.5.21-.87.71-1.02.92-.59.81-.94,1.69-1.14,2.28-.35.99-.49,1.78-.44,2.47.06.82.43,1.28,1.1,1.36.02,0,.05,0,.07,0-1.11,1.62-1.98,2.58-3.38,3.74-.12.1-.13.25-.03.34.06.05.15.07.25.07.14,0,.3-.04.38-.08.54-.29,2.56-2.4,3.67-4.19.05-.02.1-.03.15-.06.56-.23,1.02-.65,1.35-1.02-.26.86-.56,1.86-.86,2.85l-.08.25c-.09.29-.17.58-.26.87-.03.09,0,.17.09.22.08.04.19.04.33,0l.04-.02c.13-.05.35-.18.4-.33.41-1.44.86-2.89,1.29-4.3l.02-.08c.17-.55.34-1.11.5-1.66l.23-.75c.03-.09,0-.17-.09-.21ZM9.12,5.08c-.04.69-.35,1.39-.61,1.92-.31.61-.67,1.26-1.06,1.91-.11.17-.22.35-.32.52-.45-.04-.62-.42-.69-.74-.13-.67.04-1.41.22-2.05.23-.78.53-1.51.92-2.17.14-.24.3-.5.52-.74.02-.03.09-.09.1-.1.02-.02.05-.04.07-.06.19.01.37.12.54.32.24.29.35.68.32,1.18Z"/>
    <path class="cls-1" d="M8,1.58C4.46,1.58,1.58,4.46,1.58,8c0,1.94.87,3.68,2.23,4.85.06-.04.11-.08.17-.11,0,0,.01,0,.02-.01.12-.1.23-.2.32-.32,0,0,0,0,0-.01-1.26-1.05-2.08-2.63-2.08-4.4,0-3.16,2.57-5.74,5.74-5.74s5.74,2.57,5.74,5.74-2.57,5.74-5.74,5.74c-.94,0-1.83-.24-2.61-.64-.11.2-.25.39-.39.56.9.48,1.92.76,3,.76,3.54,0,6.42-2.88,6.42-6.42S11.54,1.58,8,1.58Z"/>
  </g>
</svg>