<svg width="172" height="34" viewBox="0 0 172 34" fill="none" xmlns="http://www.w3.org/2000/svg">
<path d="M11.9002 2.31248C8.98977 3.66792 3.11033 7.96895 1.92799 10.7121C0.0588188 15.0488 1.72555 20.4906 3.28636 22.9375C5.34289 26.1614 9.72911 26.5579 14.7167 27.5407C20.3051 28.6419 26.546 30.278 32.3168 31.5483C35.1229 32.166 37.3191 32.2378 39.1703 32.3346C41.6164 32.4625 51.1317 32.8246 63.9379 32.9214C68.6124 32.9567 69.5797 33.2118 76.178 33.3116C82.7762 33.4113 94.9752 33.4113 101.937 33.3145C113.984 33.147 119.854 32.4373 129.017 32.0442C137.704 31.6714 141.94 30.677 145.769 30.3807C150.016 30.052 154.274 29.3039 157.017 28.7201C161.329 27.8025 166.01 26.1823 168.559 25.1027C169.166 24.8458 169.73 24.422 170.126 23.9321C172.091 21.501 170.528 16.9935 169.161 14.1564C167.734 11.1952 164.472 9.16596 162.122 7.6961C159.931 6.32535 157.431 5.44584 154.207 5.0527C149.535 4.48308 146.482 3.68552 139.649 3.3892C134.137 3.15018 131.026 2.51198 122.151 2.21566C114.415 1.95737 105.021 1.33844 95.2598 1.23576C93.0779 1.2128 92.1117 1.52621 86.5785 1.62596C81.0452 1.72571 70.9762 1.72571 65.2083 1.82253C53.5874 2.01759 45.3578 2.69975 39.8921 2.99607C35.3379 3.24297 31.0876 4.46006 25.613 5.2434C20.5198 6.02674 16.9933 6.41988 15.5293 6.51669C14.8399 6.61351 14.259 6.80714 13.0737 7.00665" stroke="#D4C6A5" stroke-linecap="round"/>
</svg>
