<svg width="871" height="317" viewBox="0 0 871 317" fill="none" xmlns="http://www.w3.org/2000/svg">
<path d="M651.128 85.8271C645.823 80.5216 640.517 75.2161 598.259 63.1984C556 51.1807 476.948 32.6115 405.453 30.4732C333.957 28.335 272.414 43.1903 234.873 54.5569C197.333 65.9235 185.661 73.3512 176.465 80.0955C160.328 91.9303 150.098 103.994 142.341 114.686C135.093 124.675 130.79 140.924 126.24 160.176C119.737 187.692 124.31 199.911 131.794 213.585C134.266 218.101 139.777 222.387 149.134 228.561C158.491 234.734 172.285 242.162 210.959 254.477C249.632 266.792 312.768 283.77 365.453 294.903C418.138 306.037 458.459 310.812 499.922 313.271C541.385 315.731 582.768 315.731 625.839 312.548C668.91 309.365 712.415 302.998 741.724 297.861C771.032 292.725 784.827 289.011 798.034 284.18C823.915 274.712 841.322 262.725 850.422 254.163C856.79 248.172 859.586 240.216 861.458 228.472C863.985 212.627 860.164 193.641 853.219 175.988C849.948 167.675 845.212 161.519 834.537 151.076C823.862 140.634 806.884 126.309 794.955 117.073C783.026 107.837 776.659 104.123 754.28 95.3126C731.9 86.5023 693.701 72.7081 634.762 56.8479C575.823 40.9877 497.302 23.4797 436.16 13.3992C375.018 3.31884 333.636 1.19665 299.054 1.42977C264.472 1.66289 237.944 4.31562 216.055 7.80438C194.166 11.2931 177.719 15.5375 163.145 20.1115C136.085 28.6042 116.368 38.6244 102.462 47.9733C89.1166 56.9445 83.6191 69.1711 79.6158 78.7852C74.618 90.788 67.0274 111.936 61.4004 145.055C58.3244 163.16 59.4872 184.541 60.8135 198.657C62.7655 219.431 73.3618 231.535 85.3876 242.499C91.3276 247.915 97.9439 251.872 110.773 258.834C123.603 265.795 142.703 275.345 169.254 283.713C195.806 292.082 229.23 298.979 285.444 302.797C341.658 306.615 419.649 307.146 488.475 301.583C557.302 296.02 614.601 284.348 666.136 267.459C717.672 250.57 761.707 228.818 789.167 214.429C816.627 200.04 826.177 193.673 835.606 186.149C854.055 170.136 864.409 159.798 866.547 156.591C867.624 154.975 868.685 153.383 869.778 151.744" stroke="#D4C6A5" stroke-width="2" stroke-linecap="round"/>
<path d="M14.6067 181.157C14.6067 179.896 8.93022 177.984 1.90631 180.173C10.1152 204.685 18.4101 214.91 22.2231 217.137C24.1439 218.102 26.0361 218.732 29.8968 217.471" stroke="#D4C6A5" stroke-width="2" stroke-linecap="round"/>
<path d="M18.4292 184.98C19.6906 175.519 20.9521 166.058 22.8633 161.5C24.7746 156.941 27.2975 157.572 28.9125 159.158C35.8147 165.938 30.5466 178.558 26.4087 186.862C24.8128 190.675 23.5323 197.04 22.5766 205.306C22.2517 209.157 22.2517 212.311 24.163 217.471" stroke="#D4C6A5" stroke-width="2" stroke-linecap="round"/>
<path d="M818.821 79.6184C818.821 78.8388 815.702 73.7594 810.782 69.5956C805.647 65.2493 808.579 83.1503 810.729 86.4814C815.608 91.7615 821.939 96.9235 827.834 100.266C830.609 101.66 832.948 102.44 836.539 104.424" stroke="#D4C6A5" stroke-width="2" stroke-linecap="round"/>
<path d="M821.183 78.4371C821.963 76.0983 827.432 68.6565 835.89 60.1811C838.759 57.3055 840.839 59.8917 841.837 62.455C847.788 77.7363 842.847 96.132 842.251 102.824C842.056 104.413 841.666 105.582 841.465 107.549C841.264 109.515 841.264 112.244 841.264 115.055" stroke="#D4C6A5" stroke-width="2" stroke-linecap="round"/>
</svg>
