<svg width="623" height="227" viewBox="0 0 623 227" fill="none" xmlns="http://www.w3.org/2000/svg">
<path d="M465.476 61.317C461.685 57.526 457.894 53.7351 427.699 45.148C397.503 36.5608 341.018 23.2925 289.932 21.7646C238.845 20.2367 194.87 30.8514 168.046 38.9733C141.222 47.0951 132.882 52.4025 126.311 57.2216C114.781 65.678 107.471 74.2982 101.928 81.9376C96.7495 89.0753 93.6744 100.686 90.4234 114.442C85.7769 134.104 89.0449 142.834 94.3924 152.605C96.1587 155.832 100.096 158.894 106.782 163.305C113.468 167.717 123.324 173.024 150.958 181.824C178.592 190.623 223.705 202.754 261.35 210.71C298.995 218.665 327.807 222.077 357.434 223.835C387.061 225.592 416.63 225.592 447.406 223.318C478.182 221.043 509.268 216.494 530.21 212.824C551.152 209.153 561.009 206.5 570.446 203.047C588.939 196.283 601.377 187.717 607.879 181.6C612.43 177.318 614.427 171.634 615.765 163.242C617.571 151.921 614.84 138.354 609.878 125.74C607.541 119.8 604.157 115.401 596.529 107.94C588.901 100.479 576.77 90.2432 568.246 83.6435C559.722 77.0438 555.173 74.3901 539.182 68.0948C523.191 61.7995 495.896 51.943 453.782 40.6103C411.668 29.2776 355.561 16.7674 311.873 9.56457C268.185 2.36173 238.616 0.845345 213.905 1.01192C189.195 1.17849 170.24 3.07397 154.6 5.56682C138.959 8.05967 127.207 11.0924 116.794 14.3607C97.4579 20.4291 83.3699 27.5889 73.433 34.269C63.8975 40.6793 59.9693 49.4157 57.1088 56.2854C53.5377 64.8618 48.1139 79.9731 44.0932 103.638C41.8953 116.574 42.7261 131.852 43.6739 141.938C45.0686 156.782 52.6401 165.431 61.2329 173.265C65.4773 177.135 70.2049 179.963 79.3721 184.937C88.5394 189.911 102.187 196.735 121.159 202.714C140.131 208.694 164.014 213.622 204.181 216.35C244.348 219.079 300.075 219.458 349.254 215.483C398.434 211.508 439.376 203.168 476.2 191.1C513.024 179.032 544.489 163.489 564.11 153.208C583.732 142.926 590.555 138.377 597.293 133.001C610.475 121.559 617.873 114.172 619.401 111.88C620.171 110.726 620.929 109.589 621.71 108.417" stroke="#D4C6A5" stroke-width="2" stroke-linecap="round"/>
<path d="M10.6572 129.434C10.6572 128.533 6.60112 127.167 1.58228 128.731C7.44784 146.245 13.3749 153.552 16.0994 155.143C17.4719 155.832 18.8239 156.283 21.5826 155.382" stroke="#D4C6A5" stroke-width="2" stroke-linecap="round"/>
<path d="M13.3884 132.165C14.2898 125.405 15.1911 118.645 16.5568 115.388C17.9225 112.131 19.7251 112.582 20.8791 113.715C25.811 118.559 22.0468 127.577 19.0901 133.511C17.9498 136.235 17.0348 140.783 16.3519 146.689C16.1198 149.441 16.1198 151.694 17.4854 155.382" stroke="#D4C6A5" stroke-width="2" stroke-linecap="round"/>
<path d="M585.298 56.8806C585.298 56.3236 583.07 52.6942 579.555 49.719C575.885 46.6134 577.981 59.4043 579.517 61.7845C583.003 65.5574 587.527 69.2458 591.739 71.6344C593.722 72.6304 595.393 73.1875 597.959 74.6054" stroke="#D4C6A5" stroke-width="2" stroke-linecap="round"/>
<path d="M586.987 56.0368C587.544 54.3656 591.452 49.0481 597.495 42.9922C599.546 40.9374 601.032 42.7854 601.745 44.6169C605.997 55.536 602.466 68.6805 602.04 73.4619C601.901 74.5972 601.622 75.4328 601.479 76.8381C601.335 78.2434 601.335 80.1932 601.335 82.202" stroke="#D4C6A5" stroke-width="2" stroke-linecap="round"/>
</svg>
