<svg width="81" height="127" viewBox="0 0 81 127" fill="none" xmlns="http://www.w3.org/2000/svg">
<path d="M32.3754 1.36338C24.4959 10.1639 16.6164 18.9645 11.7472 24.4422C5.2253 31.7793 2.78189 34.9942 2.08584 37.118C0.92207 40.669 9.3286 38.8903 18.8162 39.6206C31.6523 40.6087 36.3317 45.1453 37.2417 46.3287C37.6525 46.863 37.5594 47.5191 37.3833 48.0999C36.5885 50.7221 32.5394 53.7397 29.3444 57.4239C28.6867 58.1823 28.4843 59.0427 28.5787 59.8055C28.673 60.5682 29.1819 61.2915 30.0873 62.1807C30.9928 63.0699 32.2794 64.103 37.8748 65.7844C43.4703 67.4659 53.3355 69.7644 60.3861 71.8367C71.5562 75.1198 76.531 78.232 78.34 79.703C79.1429 80.3559 79.3295 81.2294 79.2953 81.9025C79.2299 83.1864 72.8279 87.045 63.054 92.9548C56.5409 96.8929 50.8325 102.271 45.1196 107.86C42.9115 110.02 42.3425 111.043 42.184 112.04C41.5338 116.126 47.0932 119.507 50.2341 121.85C53.0017 124.147 54.4427 125.28 54.4987 125.81C54.2315 125.933 53.364 125.761 52.4703 125.584" stroke="#D4C6A5" stroke-width="2" stroke-linecap="round"/>
</svg>
