<svg width="337" height="9" viewBox="0 0 337 9" fill="none" xmlns="http://www.w3.org/2000/svg">
<path d="M0.994629 1.60603C19.4453 0.738174 33.9559 1.02457 49.8768 1.4585C64.0749 1.84547 90.714 1.60603 105.151 1.74923C121.025 1.90668 129.655 2.47389 141.076 2.61709C152.554 2.761 164.708 3.62815 176.628 4.06208C186.251 4.41241 203.154 4.20961 213.004 4.35281C225.152 4.52941 235.811 5.07747 249.398 5.22067C261.92 5.35265 271.159 6.51812 287.18 6.95639C292.576 7.104 305.214 7.68105 322.42 7.53786C328.742 7.39466 330.174 7.10827 331.484 6.81753C332.795 6.5268 333.94 6.2404 335.121 5.94533" stroke="#D4C6A5" stroke-width="2" stroke-linecap="round"/>
</svg>
