<svg width="327" height="9" viewBox="0 0 327 9" fill="none" xmlns="http://www.w3.org/2000/svg">
<path d="M1.90161 1.25903C2.4744 1.25903 16.23 2.9774 37.9135 5.72417C46.1348 6.76562 48.714 7.03898 64.7911 7.32971C80.8682 7.62045 110.367 7.90684 126.136 7.91118C141.905 7.91552 143.05 7.62912 149.655 7.48159C156.259 7.33405 168.288 7.33405 175.63 7.19085C182.972 7.04766 185.263 6.76126 194.749 6.61373C204.234 6.46619 220.845 6.46619 230.548 6.323C240.251 6.1798 242.542 5.8934 256.467 5.60267C270.391 5.31194 295.88 5.02554 310.014 4.73481C324.147 4.44408 326.151 4.15768 325.895 4.15335C325.639 4.14901 323.062 4.4354 320.875 4.58294C318.688 4.73047 316.969 4.73047 315.199 4.73047" stroke="#D4C6A5" stroke-width="2" stroke-linecap="round"/>
</svg>
