<svg width="660" height="33" viewBox="0 0 660 33" fill="none" xmlns="http://www.w3.org/2000/svg">
<path d="M1.59857 31.2146C25.276 18.8841 43.8644 14.1088 47.4281 15.0496C48.9113 15.4411 48.6398 17.872 50.051 18.8414C57.5002 23.958 65.7172 17.4444 73.7855 14.3582C80.0624 11.9572 85.6883 13.1537 87.8265 14.8072C88.925 15.6568 88.5535 17.872 89.9648 18.8414C98.5736 24.7545 113.671 13.6526 126.521 11.2649C135.478 9.60073 141.268 13.1394 148.16 13.8735C155.21 14.6244 163.591 9.37612 173.805 7.22363C176.389 6.67897 178.787 6.98129 180.234 7.68691C182.801 8.93883 184.047 12.1986 187.832 13.6241C198.07 17.4804 212.942 8.91996 223.241 7.92212C226.508 7.60562 226.812 13.6241 230.361 14.8144C240.116 18.0854 248.18 11.7424 262.406 8.65625C265.769 7.92689 267.652 7.46596 269.092 7.92925C271.976 8.85738 272.912 12.669 274.801 14.8072C279.838 20.5092 289.035 11.7424 297.117 8.65625C302.103 6.7523 306.639 6.51088 309.248 6.50375C312.092 6.49598 312.826 11.2435 316.832 12.9113C335.202 20.56 354.522 6.52514 365.79 6.26142C368.489 6.19827 368.42 11.2435 371.485 13.3818C387.243 24.3754 413.48 7.0098 423.28 4.84306C426.503 4.13063 428.291 8.86294 430.65 12.1843C441.613 27.618 476.23 6.04047 492.859 1.29358C497.477 -0.0248274 500.036 5.52729 505.011 9.34761C510.856 13.8362 534.077 4.64349 548.488 2.46249C551.959 1.93719 551.838 9.80377 557.718 13.845C586.135 33.3748 603.612 9.83228 606.463 11.0083C607.872 11.5895 607.432 14.5364 608.373 15.9833C622.072 17.9148 644.923 16.0189 652.784 14.8215C654.459 15.0496 655.871 15.9904 658.75 14.1088" stroke="#D4C6A5" stroke-width="2" stroke-linecap="round"/>
</svg>
