<svg width="48" height="60" viewBox="0 0 48 60" fill="none" xmlns="http://www.w3.org/2000/svg">
<path d="M1.31759 59C1.09117 39.7481 1.08774 29.1588 2.27816 28.1973C4.69445 26.2455 9.41725 29.0299 13.4654 30.6665C17.7053 32.3806 20.5255 32.6558 21.3798 32.8254C22.5517 33.058 23.8395 32.4353 24.8104 31.5891C26.2996 30.291 26.5874 27.022 26.6475 21.936C26.6957 17.8506 26.9305 15.5916 27.843 14.0076C28.3284 13.1651 32.7282 15.4491 38.7266 19.0088C41.9725 20.9351 43.737 21.0117 44.7645 20.7878C45.7902 20.5644 46.0287 18.9834 46.2002 17.686C45.6925 13.6854 44.5432 8.24491 43.9171 3.61848C43.7439 2.58737 43.6307 2.13965 43.514 1" stroke="#D4C6A5" stroke-width="2" stroke-linecap="round"/>
</svg>
