<svg width="149" height="193" viewBox="0 0 149 193" fill="none" xmlns="http://www.w3.org/2000/svg">
<path d="M2.00776 191.167C1.27425 128.086 1.26314 93.3884 5.11962 90.2377C12.9474 83.8423 28.2474 92.9661 41.3617 98.3285C55.0975 103.945 64.2338 104.847 67.0012 105.402C70.7976 106.165 74.9697 104.124 78.1149 101.351C82.9393 97.0982 83.8719 86.3868 84.0664 69.7216C84.2226 56.3353 84.9833 48.9333 87.9395 43.7432C89.5119 40.9827 103.766 48.4665 123.198 60.1305C133.713 66.4421 139.43 66.6931 142.758 65.9596C146.081 65.2274 146.854 60.0471 147.409 55.7961C145.765 42.6874 142.041 24.8609 140.013 9.70167C139.452 6.32308 139.085 4.85606 138.707 1.12183" stroke="#D4C6A5" stroke-width="2" stroke-linecap="round"/>
</svg>
