<svg width="835" height="187" viewBox="0 0 835 187" fill="none" xmlns="http://www.w3.org/2000/svg">
<path d="M677.542 48.6691C675.081 47.6848 672.621 46.7006 604.425 40.0421C536.229 33.3836 402.372 21.0806 308.81 16.4651C215.248 11.8496 166.036 15.2944 133.794 18.7915C101.553 22.2885 87.7737 25.7333 73.7856 30.9528C45.404 41.5429 28.8684 52.1288 21.688 57.572C11.4999 65.295 4.99319 73.9909 2.75628 80.4332C0.307548 87.4855 2.48785 93.8844 4.70984 98.8355C8.13081 106.458 14.8952 111.78 31.4185 118.453C45.1683 124.006 71.0714 130.54 117.472 137.787C163.873 145.035 230.309 151.925 329.494 154.982C428.678 158.039 558.598 157.055 631.924 155.81C705.25 154.564 718.045 153.088 726.113 152.327C750.198 150.057 773.938 140.651 784.876 130.234C788.29 126.983 788.388 121.279 788.888 114.829C789.884 101.968 771.582 84.5491 755.163 72.8202C749.654 68.8852 740.354 65.1626 707.74 55.2531C675.126 45.3435 619.024 30.0878 555.675 20.9985C492.326 11.9092 423.429 9.44863 366.776 9.90347C310.122 10.3583 267.8 13.8031 234.925 18.5305C202.05 23.2578 179.904 29.1632 159.146 36.8806C138.387 44.5979 119.687 53.9482 106.608 60.9795C86.3301 71.8817 74.6207 80.9402 65.4419 88.6277C49.5076 101.973 44.2584 116.731 42.7596 130.883C42.206 136.11 44.7356 140.114 47.7032 144.081C51.4966 149.151 66.5082 153.52 112.685 163.169C147.817 170.51 207.582 178.231 280.334 182.548C353.086 186.865 437.238 186.373 501.259 183.659C565.279 180.945 606.617 176.024 652.272 168.567C697.928 161.111 746.647 151.269 774.206 145.214C806.883 138.035 816.185 132.702 823.88 127.744C829.941 123.838 831.635 118.774 832.627 115.553C833.758 111.879 834.125 107.843 832.649 102.154C830.099 92.3278 818.288 79.5682 805.389 65.4235C799.536 59.0058 794.458 54.7237 781.834 47.7669C769.21 40.8101 749.033 31.4598 729.043 23.9363C709.052 16.4129 689.86 10.9996 673.083 7.4727C656.306 3.94584 642.527 2.46948 627.555 1.70893C612.582 0.948385 596.834 0.948385 535.327 8.57624C473.819 16.2041 367.029 31.4598 311.278 39.5649C255.527 47.6699 254.051 48.1621 252.529 48.6691" stroke="#D4C6A5" stroke-width="2" stroke-linecap="round"/>
</svg>
