<svg width="211" height="210" viewBox="0 0 211 210" fill="none" xmlns="http://www.w3.org/2000/svg">
<path d="M1.72809 194.841C27.7677 198.876 53.8073 202.91 69.9723 205.355C91.6242 208.63 100.607 209.289 105.425 208.006C113.48 205.86 99.9295 192.285 89.7548 173.631C75.989 148.392 78.7799 134.105 79.8858 130.959C80.3851 129.539 81.7251 128.915 83.0254 128.537C88.8952 126.831 99.4627 130.737 110.237 132.232C112.456 132.54 114.311 131.871 115.622 130.765C116.934 129.659 117.667 127.825 118.228 125.047C118.79 122.268 119.156 118.601 115.494 106.076C111.832 93.5505 104.13 72.2787 99.4293 56.5527C91.9815 31.6383 91.7497 18.5324 92.2999 13.3534C92.544 11.0549 93.9503 9.64142 95.2506 8.88568C97.7308 7.4442 112.733 14.7315 135.671 25.8342C150.957 33.2326 167.957 37.3703 185.356 41.2601C192.08 42.7636 194.686 42.5827 196.742 41.6658C205.173 37.9061 204.732 23.3781 205.294 14.6426C206.222 6.66292 206.588 2.58416 207.511 1.83398C208.067 2.18407 208.8 4.01784 209.556 5.90719" stroke="#D4C6A5" stroke-width="2" stroke-linecap="round"/>
</svg>
